<?xml version="1.0" encoding="UTF-8"?>
<svg xmlns="http://www.w3.org/2000/svg" width="129" height="25" viewBox="0 0 129 25" fill="none">
  <path d="M0 10.616H13.319V24.5087H23.3076V0.197266H0V10.616ZM0 24.5087H9.98009V14.0988H0V24.5087ZM55.9698 11.7264V8.27162H52.6309V21.4766H55.9698V16.4623C55.9698 12.9796 57.1713 11.2537 61.3912 11.5879V7.96678C58.6946 7.96531 56.879 8.9122 55.9698 11.7264ZM45.1003 3.22938H36.6337V21.4751H40.5063V14.8734H45.1003C48.8388 14.8734 51.3758 12.255 51.3758 8.9122C51.3758 5.56937 48.8402 3.22938 45.1003 3.22938ZM44.4862 11.7544H40.5331V6.34985H44.4862C46.57 6.34985 47.5314 7.65901 47.5314 8.9122C47.5314 10.4437 46.57 11.7544 44.4862 11.7544ZM109.317 10.4437C110.838 10.4437 111.453 11.0843 111.746 12.3655H115.085C114.765 9.21703 112.655 7.93586 109.317 7.93586C106.298 7.93586 103.895 9.21703 103.895 12.0312C103.895 14.8733 105.979 15.6244 108.729 16.1265C111.132 16.5727 111.748 16.7671 111.748 17.714C111.748 18.6609 110.867 19.1631 109.638 19.1631C108.116 19.1631 107.261 18.3266 106.967 16.7671H103.628C103.895 19.9156 106.006 21.8094 109.637 21.8094C112.976 21.8094 115.085 20.2219 115.085 17.4077C115.085 14.5656 112.976 13.8985 109.931 13.3124C108.035 12.9501 107.206 12.6718 107.206 11.7249C107.207 10.9739 108.008 10.4437 109.317 10.4437ZM98.2606 6.04355H102.133V2.00417H98.2606V6.04355ZM129 14.9573C129 10.8619 126.943 7.93733 122.777 7.93733C118.904 7.93733 116.421 10.778 116.421 14.8734C116.421 18.9967 118.904 21.8094 122.777 21.8094C126.089 21.8094 128.091 20.2219 128.973 17.0734H125.367C124.966 18.6329 123.899 19.0232 122.911 19.0232C121.174 19.0232 120.08 17.6581 119.892 15.7363H129V14.9573ZM119.892 13.5082C120.132 11.8368 121.094 10.5836 122.777 10.5836C124.486 10.5836 125.527 11.7543 125.661 13.5082H119.892ZM68.1086 7.93733C64.236 7.93733 61.7526 10.778 61.7526 14.8734C61.7526 18.9967 64.236 21.8094 68.1086 21.8094C71.4207 21.8094 73.4226 20.2219 74.305 17.0734H70.6993C70.2983 18.6329 69.231 19.0232 68.2427 19.0232C66.5062 19.0232 65.412 17.6581 65.2243 15.7363H74.3319V14.9558C74.3319 10.8619 72.2748 7.93733 68.1086 7.93733ZM65.2243 13.5082C65.4643 11.8368 66.4257 10.5836 68.1086 10.5836C69.8183 10.5836 70.8588 11.7543 70.9929 13.5082H65.2243ZM91.8115 7.93733C89.9959 7.93733 88.4994 8.6059 87.5916 10.4452C86.6838 8.60737 85.1619 7.93733 83.3717 7.93733C81.8766 7.93733 80.3532 8.6059 79.4454 10.4452V8.27162H76.1065V21.4766H79.4454V14.2622C79.4454 12.0341 80.6469 11.0593 82.1434 11.0593C83.6653 11.0593 84.5731 12.0341 84.5731 13.9279V21.4766H87.9121V14.2622C87.9121 12.2285 88.8199 11.0593 90.5832 11.0593C92.1051 11.0593 93.0129 12.0341 93.0129 13.9279V21.4766H96.3519V13.3139C96.3505 9.83111 94.5349 7.93733 91.8115 7.93733ZM98.5275 21.4751H101.866V8.27014H98.5275V21.4751Z" fill="black"></path>
</svg>
